<svg xmlns="http://www.w3.org/2000/svg" viewBox="0 0 528 506.5"><defs><style>.cls-1,.cls-2,.cls-5{fill:#fff;}.cls-2,.cls-3,.cls-4,.cls-5{stroke:#000;stroke-miterlimit:10;}.cls-2,.cls-3{stroke-width:5px;}.cls-3,.cls-4{fill:none;}.cls-4,.cls-5{stroke-width:2px;}</style></defs><title>Hangman11</title><g id="Layer_1" data-name="Layer 1"><path class="cls-1" d="M57.52,471A197,197,0,0,1,393.64,334.54,195.71,195.71,0,0,1,451.48,471Z" transform="translate(0 -14)"/><path d="M254.5,279.5a194.36,194.36,0,0,1,194.43,189H60.08a194.33,194.33,0,0,1,194.42-189m0-5c-110,0-199.23,89.05-199.5,199H454c-.27-109.95-89.49-199-199.5-199Z" transform="translate(0 -14)"/><path class="cls-2" d="M254.5,0" transform="translate(0 -14)"/><rect class="cls-1" y="440.5" width="528" height="66"/></g><g id="Layer_2" data-name="Layer 2"><line class="cls-3" x1="254.5" x2="254.5" y2="260"/></g><g id="Layer_3" data-name="Layer 3"><line class="cls-3" x1="189.81" y1="271.23" x2="254.5" y2="204.5"/></g><g id="Layer_4" data-name="Layer 4"><line class="cls-3" x1="319" y1="271.5" x2="255" y2="204.5"/></g><g id="Layer_5" data-name="Layer 5"><line class="cls-3" x1="405.5" y1="3" x2="255.5" y2="3"/></g><g id="Layer_6" data-name="Layer 6"><line class="cls-3" x1="254.5" y1="47" x2="306.5" y2="3"/></g><g id="Layer_7" data-name="Layer 7"><line class="cls-4" x1="405" y1="3.5" x2="405" y2="90.5"/></g><g id="Layer_8" data-name="Layer 8"><circle class="cls-5" cx="405" cy="74.5" r="22"/></g><g id="Layer_9" data-name="Layer 9"><line class="cls-4" x1="405" y1="98.5" x2="405" y2="187.5"/></g><g id="Layer_10" data-name="Layer 10"><line class="cls-4" x1="405" y1="112.5" x2="439" y2="176.5"/></g><g id="Layer_11" data-name="Layer 11"><line class="cls-4" x1="364" y1="175.5" x2="404" y2="114.5"/></g></svg>